<?xml version="1.0" standalone="no"?>
<!DOCTYPE svg PUBLIC "-//W3C//DTD SVG 20010904//EN"
 "http://www.w3.org/TR/2001/REC-SVG-20010904/DTD/svg10.dtd">
<svg version="1.0" xmlns="http://www.w3.org/2000/svg"
 width="1024.000000pt" height="1024.000000pt" viewBox="0 0 1024.000000 1024.000000"
 preserveAspectRatio="xMidYMid meet">

<g transform="translate(0.000000,1024.000000) scale(0.100000,-0.100000)"
fill="#000000" stroke="none">
<path d="M4555 8413 c-79 -12 -263 -57 -347 -84 -627 -208 -1112 -755 -1247
-1408 -94 -452 -9 -949 230 -1346 237 -393 599 -684 1026 -824 217 -72 314
-86 588 -86 271 0 366 13 571 81 111 36 321 133 384 178 l35 24 145 -141 c80
-78 144 -149 143 -158 -3 -18 775 -796 828 -827 132 -79 307 -59 423 48 128
118 149 307 51 455 -45 67 -814 820 -836 819 -10 0 -74 56 -144 126 l-126 126
66 99 c161 240 270 530 305 808 18 138 8 429 -19 581 -25 143 -84 324 -150
461 -222 465 -626 817 -1126 984 -193 64 -315 83 -560 86 -115 2 -223 1 -240
-2z m575 -226 c518 -124 941 -459 1165 -922 114 -235 154 -407 162 -685 5
-169 2 -212 -16 -319 -104 -607 -545 -1130 -1116 -1320 -189 -63 -277 -75
-525 -75 -194 0 -240 4 -330 23 -446 94 -810 342 -1066 726 -550 826 -258
1958 625 2417 136 71 215 102 354 138 161 42 228 49 447 45 165 -3 211 -7 300
-28z m1128 -3070 l112 -112 -85 -85 -85 -85 -118 118 -117 118 85 79 c47 44
87 80 90 80 3 0 56 -51 118 -113z"/>
<path d="M5160 7511 c0 -91 28 -114 149 -121 l83 -5 -83 -90 c-165 -177 -512
-535 -518 -535 -3 0 -31 13 -61 28 -30 16 -80 41 -110 56 -30 15 -64 33 -75
39 -99 53 -155 77 -188 77 -35 0 -52 -13 -270 -217 -128 -120 -261 -244 -295
-275 -76 -70 -90 -96 -72 -138 7 -17 26 -38 41 -46 26 -13 32 -13 58 0 16 9
145 122 286 253 210 194 263 238 284 236 14 -1 109 -45 210 -97 123 -64 195
-96 217 -96 34 0 94 57 399 380 174 184 336 350 341 350 3 0 4 -50 2 -111 -3
-106 -2 -112 21 -130 32 -26 74 -24 108 5 l28 24 3 188 c2 139 0 194 -10 212
-25 48 -49 52 -308 52 l-240 0 0 -39z"/>
<path d="M5286 6649 l-26 -31 0 -625 0 -625 32 -30 c28 -26 38 -29 72 -25 21
3 48 15 60 27 21 21 21 25 21 593 l0 572 103 5 c57 3 106 3 108 1 2 -2 4 -269
4 -593 l0 -588 28 -11 c38 -15 100 -5 128 22 l24 22 0 647 c0 489 -3 649 -12
658 -9 9 -81 12 -264 12 l-252 0 -26 -31z"/>
<path d="M4504 6265 l-26 -26 7 -442 7 -442 24 -22 c32 -29 92 -31 125 -4 l24
19 0 384 0 383 105 0 105 0 3 -379 c3 -437 -2 -416 89 -416 40 0 58 5 73 20
19 19 20 33 20 456 l0 436 -29 29 -29 29 -237 0 -236 0 -25 -25z"/>
<path d="M3739 5971 l-24 -19 -3 -311 -3 -310 22 -12 c32 -17 107 -5 133 20
20 20 21 33 26 249 l5 227 103 3 102 3 0 -216 c0 -252 6 -280 64 -291 44 -8
104 18 114 49 4 12 5 149 2 303 -5 259 -7 284 -24 303 -18 20 -28 21 -256 21
-219 0 -240 -1 -261 -19z"/>
<path d="M1980 2971 l0 -561 110 0 110 0 0 184 0 183 153 6 c218 7 299 38 373
143 52 72 67 136 62 263 -3 92 -7 114 -31 163 -33 67 -92 120 -169 151 -49 20
-74 22 -330 25 l-278 3 0 -560z m496 348 c68 -34 88 -65 92 -148 3 -54 0 -76
-16 -108 -36 -69 -81 -87 -249 -97 l-103 -7 0 197 0 197 114 -5 c94 -4 123
-10 162 -29z"/>
<path d="M5310 2964 l0 -567 233 6 c255 6 305 14 412 70 84 44 192 155 233
239 81 167 82 380 1 539 -42 83 -145 186 -222 223 -99 46 -169 56 -424 56
l-233 0 0 -566z m517 342 c76 -34 142 -102 169 -171 27 -71 27 -259 0 -330
-25 -65 -104 -147 -166 -174 -55 -24 -156 -41 -247 -41 l-63 0 0 376 0 376
123 -4 c107 -4 130 -8 184 -32z"/>
<path d="M7177 3423 c-4 -3 -7 -55 -7 -115 l0 -108 -70 0 -70 0 0 -80 0 -80
69 0 69 0 4 -222 c6 -252 13 -287 76 -351 57 -58 153 -79 267 -59 44 9 44 6
30 115 l-6 57 -55 0 c-48 0 -60 4 -85 29 l-29 29 0 201 0 201 85 0 85 0 0 80
0 80 -85 0 -85 0 0 78 c0 42 -3 94 -6 115 l-7 37 -87 0 c-48 0 -90 -3 -93 -7z"/>
<path d="M3005 3192 c-87 -41 -169 -142 -152 -186 5 -12 121 -46 160 -46 8 0
19 11 25 25 25 55 129 84 191 52 32 -15 58 -61 66 -112 l7 -40 -89 -2 c-173
-3 -307 -53 -360 -135 -25 -37 -28 -51 -28 -124 0 -75 3 -86 30 -125 45 -63
110 -100 188 -106 80 -7 151 10 212 48 l47 30 11 -30 c11 -29 12 -30 95 -33
l83 -3 -3 310 c-3 344 -4 347 -73 423 -54 60 -120 82 -248 82 -91 0 -108 -3
-162 -28z m292 -494 c-11 -91 -73 -148 -163 -148 -139 0 -156 144 -22 187 18
6 69 11 112 12 l79 1 -6 -52z"/>
<path d="M3828 3202 c-151 -55 -238 -197 -238 -387 0 -102 26 -191 76 -258 96
-131 288 -175 435 -99 l59 31 0 -32 c0 -129 -104 -221 -229 -202 -58 9 -93 27
-157 81 l-51 43 -25 -27 c-14 -15 -42 -52 -62 -82 l-36 -54 28 -23 c45 -38
158 -91 219 -103 90 -19 228 -8 295 22 67 31 130 86 164 144 47 81 54 146 54
562 l0 382 -90 0 -90 0 0 -35 c0 -19 -2 -35 -4 -35 -2 0 -18 13 -35 29 -17 16
-52 36 -78 45 -61 21 -175 20 -235 -2z m265 -195 c55 -42 79 -89 85 -167 8
-111 -31 -190 -112 -229 -108 -53 -227 -1 -261 113 -36 121 -2 247 80 294 58
33 157 28 208 -11z"/>
<path d="M4710 3204 c-99 -36 -185 -119 -221 -213 -30 -78 -37 -224 -15 -311
46 -182 214 -301 407 -287 105 7 174 39 250 118 33 33 59 65 57 70 -2 6 -34
27 -71 47 l-67 36 -37 -36 c-86 -84 -225 -87 -300 -6 -26 27 -53 88 -53 118 0
20 5 20 266 20 l267 0 -5 103 c-4 82 -10 114 -30 159 -35 75 -88 132 -156 165
-47 23 -71 28 -152 30 -69 2 -107 -1 -140 -13z m207 -174 c36 -22 60 -54 73
-99 l9 -31 -165 0 c-141 0 -164 2 -164 15 0 40 53 105 100 124 42 17 112 13
147 -9z"/>
<path d="M6534 3209 c-82 -24 -182 -122 -187 -183 -2 -28 1 -30 68 -47 93 -24
98 -24 118 11 10 17 31 37 47 45 35 18 106 19 140 2 29 -14 70 -89 70 -127 0
-25 -1 -25 -77 -26 -256 -5 -395 -94 -395 -253 0 -138 89 -228 234 -239 80 -6
140 9 204 49 l45 29 10 -29 c10 -29 12 -30 91 -33 62 -2 82 0 86 11 3 7 2 140
-1 295 -7 326 -13 353 -87 426 -61 62 -116 80 -239 79 -53 0 -110 -5 -127 -10z
m256 -500 c0 -59 -26 -106 -75 -134 -74 -44 -169 -28 -194 33 -33 78 54 141
197 142 l72 0 0 -41z"/>
<path d="M7814 3200 c-63 -25 -129 -80 -154 -131 -34 -66 -30 -73 58 -92 99
-22 95 -22 115 13 24 40 65 60 125 60 77 0 132 -58 132 -137 l0 -28 -78 -2
c-257 -5 -401 -97 -402 -258 0 -148 124 -246 294 -233 58 5 156 43 171 68 11
17 20 11 32 -20 12 -33 -2 -30 169 -30 3 0 5 135 4 300 -1 322 -4 347 -55 414
-14 18 -49 46 -77 62 -49 26 -63 29 -168 31 -96 3 -123 0 -166 -17z m276 -497
c0 -89 -71 -153 -168 -153 -46 0 -58 4 -83 29 -53 53 -36 109 44 147 41 19 69
24 130 24 l77 0 0 -47z"/>
</g>
</svg>
